<svg width="208" height="150" viewBox="0 0 208 150" fill="none" xmlns="http://www.w3.org/2000/svg">
    <path d="M148.787 29.3688C137.381 11.7053 114.673 6.52996 98.3483 17.6681L69.5709 37.4693C61.7226 42.7572 56.281 51.4202 54.7113 61.2083C53.351 69.4213 54.5021 77.8593 58.1646 85.1722C55.6532 89.2225 53.9788 93.7227 53.2463 98.448C51.572 108.461 53.7695 118.812 59.2111 127.025C70.722 144.688 93.3253 149.864 109.65 138.725L138.427 119.037C146.276 113.749 151.717 105.086 153.287 95.2978C154.647 87.0848 153.496 78.6468 149.834 71.3339C152.345 67.2836 154.019 62.7834 154.752 58.0581C156.531 47.9325 154.333 37.5818 148.787 29.3688Z"
          fill="url(#accent-color)" class="outer-svelte-shape"
    />
    <path d="M95.5236 128.697C86.2102 131.285 76.4782 127.347 71.0366 118.909C67.688 113.959 66.4323 107.771 67.3741 101.695C67.5834 100.683 67.7927 99.7828 68.0019 98.7703L68.5252 96.9702L69.9902 98.0952C73.4435 100.795 77.2107 102.821 81.2918 104.171L82.3383 104.508L82.2337 105.633C82.129 107.208 82.5476 108.896 83.3847 110.246C85.0591 112.834 87.9891 114.071 90.8145 113.284C91.4424 113.059 92.0703 112.834 92.5935 112.496L121.266 92.8074C122.731 91.7948 123.673 90.3323 123.987 88.5321C124.301 86.732 123.882 84.8194 122.941 83.3568C121.266 80.7692 118.336 79.6441 115.511 80.4317C114.883 80.6567 114.255 80.8817 113.732 81.2192L102.744 88.7572C100.965 89.9947 98.9768 90.8948 96.8839 91.4573C87.5705 94.045 77.8386 90.1072 72.397 81.6692C69.153 76.7189 67.7927 70.5311 68.8391 64.4557C69.7809 58.6053 73.1295 53.3175 77.8386 50.1673L106.616 30.4786C108.395 29.2411 110.383 28.341 112.476 27.666C121.789 25.0783 131.521 29.016 136.963 37.4541C140.312 42.4044 141.567 48.5922 140.626 54.6676C140.416 55.6802 140.207 56.5802 139.893 57.5928L139.37 59.3929L137.905 58.2678C134.451 55.5676 130.684 53.5425 126.603 52.1924L125.557 51.8549L125.661 50.7299C125.766 49.1548 125.347 47.4672 124.51 46.1171C122.836 43.5294 119.906 42.4044 117.08 43.1919C116.453 43.4169 115.825 43.6419 115.301 43.9794L86.6287 63.6681C85.1637 64.6807 84.2219 66.1433 83.908 67.9434C83.594 69.7435 84.0126 71.6561 84.9544 73.1187C86.6287 75.7064 89.5588 76.8314 92.3842 76.0439C93.0121 75.8189 93.6399 75.5939 94.1632 75.2563L105.151 67.7184C106.93 66.4808 108.918 65.5808 111.011 64.9057C120.324 62.3181 130.056 66.2558 135.498 74.6938C138.847 79.6441 140.102 85.832 139.16 91.9073C138.219 97.7577 134.87 103.046 130.161 106.196L101.384 125.884C99.6047 127.122 97.6165 128.022 95.5236 128.697Z"
          fill="white" class="inner-svelte-shape"
    />
    <g filter="url(#left-bracket-filter)">
        <path d="M41.6489 124.66C41.6951 124.756 41.7413 124.852 41.7413 124.948C41.7413 125.237 41.5103 125.525 41.1407 125.525L27.6051 125.573C27.1893 125.573 26.8197 125.333 26.5887 124.996L5.19972 86.4227C4.96874 86.038 4.87634 85.6051 4.87634 85.1722C4.87634 84.7874 4.96874 84.3546 5.19972 84.0179L26.635 45.3963C26.8198 45.0115 27.2355 44.8191 27.6513 44.8191H41.2331C41.5565 44.8191 41.8337 45.1077 41.8337 45.4444C41.8337 45.5406 41.7875 45.6368 41.7413 45.733L20.1212 84.6432C20.0288 84.8355 19.9826 85.0279 19.9826 85.2203C19.9826 85.4608 20.0288 85.6532 20.1212 85.8456L41.6489 124.66Z" fill="white"/>
    </g>
    <g filter="url(#right-bracket-filter)">
        <path d="M166.351 110.821C166.305 110.917 166.259 111.014 166.259 111.11C166.259 111.398 166.49 111.687 166.859 111.687L180.395 111.735C180.811 111.735 181.18 111.495 181.411 111.158L202.8 72.5844C203.031 72.1996 203.124 71.7667 203.124 71.3339C203.124 70.9491 203.031 70.5162 202.8 70.1796L181.365 31.5579C181.18 31.1732 180.764 30.9808 180.349 30.9808H166.767C166.443 30.9808 166.166 31.2693 166.166 31.606C166.166 31.7022 166.212 31.7984 166.259 31.8946L187.879 70.8048C187.971 70.9972 188.017 71.1896 188.017 71.382C188.017 71.6224 187.971 71.8148 187.879 72.0072L166.351 110.821Z" fill="white"/>
    </g>
    <defs>
        <filter id="left-bracket-filter" x="0.876343" y="42.8191" width="44.9573" height="88.7543"
                color-interpolation-filters="sRGB" filterUnits="userSpaceOnUse">
            <feFlood flood-opacity="0" result="BackgroundImageFix"/>
            <feColorMatrix in="SourceAlpha" values="0 0 0 0 0 0 0 0 0 0 0 0 0 0 0 0 0 0 127 0" result="hardAlpha"/>
            <feOffset dy="2"/>
            <feGaussianBlur stdDeviation="2"/>
            <feComposite in2="hardAlpha" operator="out"/>
            <feColorMatrix values="0 0 0 0 0 0 0 0 0 0 0 0 0 0 0 0 0 0 0.15 0"/>
            <feBlend in2="BackgroundImageFix" result="effect1_dropShadow_2_101"/>
            <feBlend in="SourceGraphic" in2="effect1_dropShadow_2_101" result="shape"/>
        </filter>
        <filter id="right-bracket-filter" x="162.166" y="28.9808" width="44.9573" height="88.7543" filterUnits="userSpaceOnUse" color-interpolation-filters="sRGB">
            <feFlood flood-opacity="0" result="BackgroundImageFix"/>
            <feColorMatrix in="SourceAlpha" values="0 0 0 0 0 0 0 0 0 0 0 0 0 0 0 0 0 0 127 0" result="hardAlpha"/>
            <feOffset dy="2"/>
            <feGaussianBlur stdDeviation="2"/>
            <feComposite in2="hardAlpha" operator="out"/>
            <feColorMatrix values="0 0 0 0 0 0 0 0 0 0 0 0 0 0 0 0 0 0 0.15 0"/>
            <feBlend in2="BackgroundImageFix" result="effect1_dropShadow_2_101"/>
            <feBlend in="SourceGraphic" in2="effect1_dropShadow_2_101" result="shape"/>
        </filter>
        <linearGradient id="accent-color" x1="52.7231" y1="11.8178" x2="52.7231" y2="145" gradientUnits="userSpaceOnUse">
            <stop stop-color="#2681F0"/>
            <stop offset="1" stop-color="#134897"/>
            <stop offset="1" stop-color="#134897"/>
        </linearGradient>
    </defs>
</svg>