<svg xmlns="http://www.w3.org/2000/svg" width="480" height="480" viewBox="0 0 480 453">
    <defs>
        <linearGradient id="shadow" gradientTransform="rotate(30)">
            <stop offset="5%" stop-color="#014fd5"/><stop offset="95%" stop-color="#2e7cfe"/> 
        </linearGradient>
    </defs>
    <path fill="#c00172" d="M164.449,91.604c0,-0 -64.968,37.264 -112.03,64.258c-9.797,5.619 -15.84,16.051 -15.84,27.346c0,11.294 6.043,21.726 15.84,27.346c45.54,26.12 107.287,61.537 107.287,61.537l159.707,-91.604l-154.964,-88.883Z"/>
    <path fill="#fe2e96" d="M339.841,8.997c-9.715,-5.572 -21.656,-5.572 -31.37,-0c-40.245,23.083 -144.022,82.607 -144.022,82.607l154.964,88.883c-0,0 64.968,-37.264 112.03,-64.257c9.797,-5.62 15.84,-16.052 15.84,-27.347c-0,-11.294 -6.043,-21.726 -15.84,-27.346c-31.322,-17.965 -70.31,-40.328 -91.602,-52.54Z"/>
    <path fill="#2e7cfe" d="M319.413,180.487l-159.707,91.604l154.964,88.884c-0,-0 64.968,-37.265 112.03,-64.258c9.797,-5.62 15.84,-16.052 15.84,-27.346c-0,-11.295 -6.043,-21.727 -15.84,-27.346c-45.54,-26.121 -107.287,-61.538 -107.287,-61.538Z"/>
    <path fill="#3b2efe" d="M159.706,272.091c0,0 -64.968,37.264 -112.03,64.258c-9.797,5.619 -15.84,16.051 -15.84,27.346c0,11.295 6.043,21.726 15.84,27.346c31.322,17.965 70.31,40.328 91.602,52.541c9.715,5.572 21.656,5.572 31.371,-0c40.244,-23.084 144.021,-82.607 144.021,-82.607l-154.964,-88.884Z"/>
</svg>